<?xml version="1.0" standalone="no"?>
<!DOCTYPE svg PUBLIC "-//W3C//DTD SVG 20010904//EN"
 "http://www.w3.org/TR/2001/REC-SVG-20010904/DTD/svg10.dtd">
<svg version="1.0" xmlns="http://www.w3.org/2000/svg"
 width="1600.000000pt" height="1600.000000pt" viewBox="0 0 1600.000000 1600.000000"
 preserveAspectRatio="xMidYMid meet">
<metadata>
Created by potrace 1.11, written by Peter Selinger 2001-2013
</metadata>
<g transform="translate(0.000000,1600.000000) scale(0.100000,-0.100000)"
fill="#000000" stroke="none">
<path d="M7810 15869 c-36 -49 -79 -109 -96 -132 -216 -295 -452 -711 -520
-917 -24 -73 -28 -101 -28 -200 1 -97 5 -128 27 -195 50 -151 151 -287 274
-368 l64 -42 -43 -19 c-174 -79 -259 -132 -358 -224 -36 -33 -70 -57 -76 -54
-6 4 -27 19 -45 35 -269 219 -610 362 -989 414 -114 16 -557 7 -612 -12 -7 -2
-31 -6 -53 -9 -166 -19 -493 -117 -739 -221 -177 -74 -224 -96 -597 -282 -499
-248 -549 -270 -549 -244 0 14 -107 91 -163 116 -135 62 -320 76 -452 35 -222
-69 -379 -247 -420 -476 -12 -72 -12 -160 1 -224 4 -19 8 -37 8 -40 1 -3 10
-27 20 -55 92 -241 321 -396 576 -389 114 3 157 13 269 67 115 54 211 149 264
262 21 44 41 86 45 93 4 8 57 35 117 60 61 26 267 125 459 220 452 225 592
287 829 371 77 27 246 76 302 87 11 2 31 6 45 9 199 43 479 51 655 19 150 -27
237 -55 370 -120 123 -60 248 -150 343 -246 l63 -64 -12 -73 c-26 -168 21
-407 115 -586 129 -247 357 -443 624 -536 185 -64 424 -73 617 -23 33 8 67 17
76 19 25 5 169 71 214 98 286 170 490 475 531 797 10 71 10 181 1 250 l-7 55
67 69 c212 217 495 345 818 373 166 14 371 3 515 -28 25 -5 56 -11 69 -14 112
-21 333 -92 506 -162 149 -60 189 -79 575 -270 184 -91 400 -195 480 -229 80
-35 148 -69 151 -76 63 -138 88 -179 148 -239 125 -124 266 -183 441 -182 135
0 228 29 341 104 215 144 315 440 232 689 -63 188 -222 339 -417 395 -190 54
-445 -6 -583 -138 l-32 -30 -63 28 c-35 15 -243 116 -463 225 -440 218 -632
304 -835 374 -228 79 -416 124 -645 153 -74 10 -440 10 -515 1 -362 -45 -689
-176 -965 -387 -33 -25 -66 -51 -74 -59 -12 -11 -19 -8 -50 20 -19 18 -38 36
-41 39 -51 58 -324 219 -372 219 -28 0 -21 16 15 38 47 27 73 49 136 112 189
190 246 463 149 715 -71 186 -221 454 -404 726 -119 175 -257 368 -264 368 -3
0 -34 -40 -70 -90z"/>
<path d="M12680 11929 c-79 -7 -113 -24 -167 -82 -51 -55 -56 -66 -173 -382
-39 -104 -75 -199 -80 -210 -5 -11 -16 -40 -24 -65 -15 -43 -166 -445 -391
-1040 -59 -157 -114 -301 -121 -321 -7 -20 -86 -229 -174 -465 -89 -236 -209
-555 -266 -709 -58 -154 -109 -289 -114 -300 -5 -11 -59 -155 -120 -320 -62
-165 -116 -309 -121 -320 -7 -16 -270 -716 -384 -1020 -12 -33 -50 -135 -84
-226 l-62 -165 -345 0 c-189 0 -346 -3 -350 -6 -16 -17 155 -385 266 -573 99
-167 270 -401 368 -504 219 -231 379 -373 552 -492 36 -24 69 -47 75 -52 29
-22 115 -77 120 -77 3 0 22 -11 43 -23 217 -137 624 -298 892 -353 41 -9 84
-18 95 -21 20 -4 168 -27 240 -37 181 -25 547 -25 735 -1 41 5 133 18 140 20
3 1 30 5 60 10 30 5 57 9 60 10 3 1 32 7 65 14 189 40 462 133 655 223 239
112 533 298 699 443 128 112 271 250 346 336 77 87 93 107 158 192 135 176
231 331 332 537 82 164 152 337 141 347 -3 4 -160 7 -348 7 l-341 1 -44 115
c-24 63 -93 248 -154 410 -60 162 -114 304 -119 315 -5 11 -45 119 -90 240
-45 121 -92 247 -105 280 -13 33 -49 128 -79 210 -31 83 -63 166 -71 185 -7
19 -75 197 -149 395 -139 372 -494 1319 -548 1460 -16 44 -34 89 -39 100 -11
26 -158 418 -176 470 -8 22 -35 94 -60 160 -25 66 -52 136 -59 155 -7 19 -65
175 -129 345 -64 171 -141 374 -170 451 -68 181 -84 212 -135 258 -70 63 -144
85 -250 75z m131 -1395 c39 -104 81 -216 94 -249 123 -328 227 -604 235 -620
5 -11 37 -94 71 -185 33 -91 85 -228 114 -305 29 -77 96 -255 149 -395 53
-140 100 -264 105 -275 5 -11 33 -83 61 -160 28 -77 56 -149 61 -160 4 -11 15
-38 22 -60 8 -22 71 -191 141 -375 202 -531 336 -886 435 -1150 51 -135 97
-253 102 -262 5 -10 9 -21 9 -26 0 -5 -756 -8 -1680 -8 -1116 0 -1680 3 -1680
10 0 10 100 281 125 341 7 17 57 147 110 290 53 143 103 274 110 290 7 17 25
62 38 100 14 39 73 196 132 350 58 154 151 397 205 540 157 415 374 989 477
1260 52 138 110 291 128 340 18 50 41 113 53 140 11 28 41 104 65 170 25 66
74 197 110 290 35 94 77 205 93 247 18 48 32 72 36 63 4 -7 40 -98 79 -201z"/>
<path d="M2895 11910 c-53 -29 -91 -66 -120 -115 -19 -33 -88 -206 -160 -405
-7 -19 -86 -229 -175 -465 -89 -237 -182 -484 -207 -550 -66 -177 -130 -347
-173 -460 -36 -95 -86 -226 -319 -850 -56 -148 -106 -279 -110 -290 -9 -19
-415 -1099 -763 -2030 -89 -236 -163 -432 -166 -435 -2 -3 -155 -6 -340 -7
-186 0 -343 -1 -349 -2 -12 -1 4 -53 37 -126 5 -11 25 -58 45 -105 177 -414
497 -845 855 -1150 148 -126 327 -255 470 -338 156 -91 329 -173 505 -240 163
-61 420 -131 543 -147 12 -2 55 -9 93 -15 131 -22 302 -34 479 -34 151 1 359
14 430 29 14 2 48 7 75 11 28 3 52 8 55 9 3 2 25 6 50 10 24 4 94 20 154 36
61 16 121 32 133 34 36 8 223 75 312 111 224 93 525 265 696 398 141 110 219
179 345 306 141 142 182 187 277 310 186 240 363 556 468 833 13 37 24 67 22
68 -1 0 -158 2 -349 2 -190 1 -348 4 -351 7 -2 3 -11 25 -20 50 -8 25 -26 74
-40 110 -13 36 -52 139 -86 230 -34 91 -75 199 -91 240 -32 84 -138 365 -180
480 -30 82 -367 976 -377 1000 -3 8 -7 20 -9 25 -1 6 -11 33 -22 60 -10 28
-70 185 -131 350 -62 165 -117 309 -121 320 -11 22 -137 359 -180 475 -30 84
-609 1622 -645 1715 -13 33 -51 134 -85 225 -75 199 -80 209 -128 256 -63 61
-105 77 -212 82 -83 3 -100 0 -135 -18z m163 -1227 c11 -32 74 -200 140 -373
66 -173 190 -499 275 -725 86 -225 176 -464 202 -530 25 -66 48 -127 50 -135
2 -8 43 -116 90 -240 48 -124 137 -360 200 -525 62 -165 170 -451 240 -635 70
-184 165 -436 212 -560 104 -277 187 -495 219 -577 13 -34 24 -65 24 -70 0 -5
-705 -9 -1680 -9 -924 0 -1680 3 -1680 6 0 4 79 216 176 471 174 460 210 555
444 1174 67 176 127 336 134 355 8 19 48 125 89 235 186 489 265 698 363 960
58 154 111 294 118 310 8 17 37 93 66 170 28 77 80 214 115 305 34 91 87 229
116 307 30 79 57 143 61 143 3 0 15 -26 26 -57z"/>
<path d="M6746 11088 c15 -250 103 -477 254 -663 43 -53 163 -164 218 -202 43
-30 52 -42 53 -67 1 -40 1 -6989 0 -7038 -1 -35 -3 -37 -57 -58 -145 -54 -366
-184 -494 -291 -166 -138 -317 -317 -424 -502 -31 -54 -56 -100 -56 -102 0 -2
-13 -32 -29 -67 -78 -170 -127 -363 -145 -577 -3 -29 -8 -56 -11 -59 -4 -4
-293 -7 -643 -7 -703 -1 -691 0 -827 -65 -161 -77 -276 -218 -327 -400 -6 -19
-11 -195 -13 -391 l-3 -356 3637 1 3636 1 -1 340 c0 374 -4 402 -60 521 -59
126 -166 234 -281 285 -26 12 -55 25 -63 29 -65 31 -131 34 -767 34 -354 1
-643 3 -644 6 -1 3 -3 23 -4 45 -7 76 -15 145 -20 168 -3 12 -7 33 -9 47 -10
62 -51 203 -83 290 -171 456 -550 848 -1005 1036 -48 20 -89 40 -89 43 -1 3
-2 1601 -3 3550 l-1 3544 70 52 c230 170 382 413 439 700 13 69 21 162 17 203
-1 9 -235 12 -1135 12 l-1134 0 4 -62z"/>
</g>
</svg>
